<svg xmlns="http://www.w3.org/2000/svg" xmlns:xlink="http://www.w3.org/1999/xlink" width="500" zoomAndPan="magnify" viewBox="0 0 375 374.999991" height="500" preserveAspectRatio="xMidYMid meet" version="1.2"><defs><clipPath id="c6ea89e78f"><path d="M 112.5 180 L 213 180 L 213 206.75 L 112.5 206.75 Z M 112.5 180 "/></clipPath><clipPath id="99851f1e30"><path d="M 115 95 L 262.5 95 L 262.5 186 L 115 186 Z M 115 95 "/></clipPath></defs><g id="3e065c8b81"><rect x="0" width="375" y="0" height="374.999991" style="fill:#ffffff;fill-opacity:1;stroke:none;"/><rect x="0" width="375" y="0" height="374.999991" style="fill:#ffffff;fill-opacity:1;stroke:none;"/><path style=" stroke:none;fill-rule:nonzero;fill:#0070ae;fill-opacity:1;" d="M 177.617188 151.625 L 187.929688 151.625 L 187.929688 161.976562 L 177.617188 161.976562 Z M 177.617188 151.625 "/><path style=" stroke:none;fill-rule:nonzero;fill:#0070ae;fill-opacity:1;" d="M 190.070312 151.625 L 200.386719 151.625 L 200.386719 161.976562 L 190.070312 161.976562 Z M 190.070312 151.625 "/><path style=" stroke:none;fill-rule:nonzero;fill:#0070ae;fill-opacity:1;" d="M 177.617188 139.140625 L 187.929688 139.140625 L 187.929688 149.488281 L 177.617188 149.488281 Z M 177.617188 139.140625 "/><path style=" stroke:none;fill-rule:nonzero;fill:#0070ae;fill-opacity:1;" d="M 190.070312 139.140625 L 200.386719 139.140625 L 200.386719 149.488281 L 190.070312 149.488281 Z M 190.070312 139.140625 "/><path style=" stroke:none;fill-rule:nonzero;fill:#0070ae;fill-opacity:1;" d="M 250.382812 178.378906 C 247.980469 180.34375 245.453125 182.09375 242.828125 183.578125 C 240.191406 185.054688 237.472656 186.265625 234.683594 187.199219 C 231.90625 188.148438 229.054688 188.777344 226.195312 189.144531 C 220.476562 189.886719 214.726562 189.410156 209.238281 187.933594 C 208.894531 187.851562 208.558594 187.742188 208.214844 187.636719 L 207.191406 187.332031 C 206.855469 187.222656 206.519531 187.097656 206.1875 186.988281 C 205.851562 186.863281 205.515625 186.761719 205.183594 186.632812 L 204.1875 186.234375 C 203.851562 186.101562 203.519531 185.988281 203.195312 185.835938 L 202.21875 185.410156 L 201.734375 185.195312 C 201.570312 185.125 201.398438 185.035156 201.238281 184.960938 C 200.578125 184.636719 199.910156 184.339844 199.25 183.996094 L 198.253906 183.488281 C 197.921875 183.324219 197.597656 183.128906 197.261719 182.957031 L 196.265625 182.429688 L 195.261719 181.867188 C 194.929688 181.6875 194.59375 181.503906 194.257812 181.308594 L 193.253906 180.730469 C 191.90625 179.964844 190.546875 179.171875 189.179688 178.378906 L 187.089844 177.1875 C 186.378906 176.792969 185.679688 176.394531 184.960938 176.007812 C 182.078125 174.449219 179.066406 172.933594 175.863281 171.683594 C 175.457031 171.53125 175.070312 171.355469 174.65625 171.214844 L 173.429688 170.789062 C 172.617188 170.492188 171.777344 170.257812 170.945312 170.015625 L 170.316406 169.832031 L 169.695312 169.667969 C 169.28125 169.566406 168.863281 169.453125 168.449219 169.363281 C 167.617188 169.179688 166.785156 168.988281 165.933594 168.832031 C 165.09375 168.660156 164.25 168.550781 163.398438 168.40625 L 162.121094 168.242188 C 161.90625 168.222656 161.695312 168.183594 161.480469 168.164062 L 160.84375 168.101562 C 160.417969 168.058594 159.992188 168.019531 159.566406 167.988281 L 158.289062 167.90625 C 157.859375 167.878906 157.433594 167.878906 157 167.867188 L 156.359375 167.847656 C 156.148438 167.847656 155.933594 167.847656 155.722656 167.847656 C 155.296875 167.847656 154.871094 167.847656 154.433594 167.855469 L 153.15625 167.90625 C 152.730469 167.917969 152.304688 167.957031 151.878906 167.988281 C 151.453125 168.03125 151.027344 168.050781 150.601562 168.101562 C 148.894531 168.273438 147.210938 168.558594 145.539062 168.914062 L 144.292969 169.199219 C 144.089844 169.25 143.875 169.300781 143.671875 169.363281 L 143.054688 169.535156 C 142.234375 169.75 141.433594 170.015625 140.621094 170.277344 C 139.019531 170.816406 137.457031 171.460938 135.933594 172.152344 C 134.414062 172.863281 132.941406 173.65625 131.511719 174.511719 C 130.09375 175.386719 128.734375 176.34375 127.4375 177.359375 C 126.136719 178.398438 124.921875 179.507812 123.785156 180.6875 C 122.667969 181.890625 121.625 183.140625 120.722656 184.484375 C 122.050781 183.558594 123.378906 182.703125 124.75 181.917969 C 126.117188 181.144531 127.515625 180.464844 128.925781 179.832031 C 130.347656 179.222656 131.789062 178.683594 133.226562 178.195312 C 134.675781 177.726562 136.136719 177.308594 137.609375 176.964844 C 139.078125 176.628906 140.558594 176.34375 142.039062 176.121094 C 143.519531 175.917969 144.992188 175.761719 146.460938 175.683594 C 149.414062 175.539062 152.34375 175.640625 155.253906 175.996094 C 156.703125 176.179688 158.15625 176.40625 159.585938 176.710938 C 160.304688 176.851562 161.015625 177.023438 161.726562 177.179688 C 162.433594 177.359375 163.144531 177.535156 163.84375 177.746094 C 164.554688 177.941406 165.246094 178.164062 165.945312 178.378906 C 166.289062 178.492188 166.632812 178.613281 166.988281 178.722656 L 167.503906 178.898438 L 168.011719 179.089844 C 168.683594 179.34375 169.351562 179.578125 170.011719 179.875 L 171.003906 180.292969 C 171.339844 180.433594 171.664062 180.597656 172 180.738281 C 174.644531 181.960938 177.261719 183.394531 179.910156 184.933594 L 181.90625 186.101562 L 183.925781 187.304688 C 185.285156 188.105469 186.664062 188.921875 188.074219 189.734375 C 188.78125 190.140625 189.484375 190.539062 190.210938 190.933594 L 191.296875 191.527344 L 192.402344 192.105469 C 192.777344 192.300781 193.132812 192.492188 193.519531 192.675781 L 194.65625 193.226562 C 195.40625 193.601562 196.195312 193.949219 196.96875 194.292969 C 197.160156 194.375 197.351562 194.464844 197.554688 194.546875 L 198.164062 194.792969 L 199.382812 195.28125 C 199.785156 195.453125 200.203125 195.585938 200.609375 195.726562 L 201.84375 196.15625 C 202.261719 196.289062 202.6875 196.410156 203.101562 196.53125 C 203.519531 196.652344 203.945312 196.785156 204.359375 196.898438 L 205.636719 197.214844 C 206.0625 197.316406 206.488281 197.425781 206.917969 197.507812 C 208.628906 197.855469 210.363281 198.148438 212.109375 198.304688 L 213.417969 198.425781 C 213.851562 198.445312 214.289062 198.464844 214.726562 198.484375 C 215.597656 198.535156 216.480469 198.515625 217.351562 198.515625 C 217.574219 198.515625 217.789062 198.515625 218.011719 198.507812 L 218.671875 198.476562 L 219.976562 198.40625 C 220.414062 198.375 220.851562 198.324219 221.285156 198.28125 L 221.9375 198.222656 C 222.148438 198.199219 222.371094 198.179688 222.585938 198.140625 L 223.871094 197.945312 L 224.523438 197.84375 L 225.160156 197.710938 L 226.4375 197.449219 C 226.652344 197.40625 226.863281 197.347656 227.078125 197.296875 L 227.707031 197.132812 C 228.121094 197.019531 228.546875 196.929688 228.964844 196.808594 L 230.203125 196.421875 L 230.820312 196.226562 L 231.429688 196.011719 L 232.644531 195.574219 C 232.847656 195.503906 233.050781 195.421875 233.242188 195.332031 L 233.84375 195.078125 C 234.238281 194.902344 234.632812 194.75 235.027344 194.566406 L 236.195312 194.007812 L 236.773438 193.722656 C 236.964844 193.632812 237.148438 193.519531 237.339844 193.417969 C 240.375 191.820312 243.191406 189.886719 245.726562 187.679688 C 248.261719 185.460938 250.515625 182.976562 252.429688 180.292969 C 254.359375 177.617188 255.972656 174.757812 257.179688 171.765625 C 255.058594 174.207031 252.785156 176.414062 250.382812 178.378906 Z M 250.382812 178.378906 "/><g clip-rule="nonzero" clip-path="url(#c6ea89e78f)"><path style=" stroke:none;fill-rule:nonzero;fill:#00b7ee;fill-opacity:1;" d="M 212.34375 204.691406 C 204.015625 205.851562 194.027344 200.105469 183.023438 193.652344 C 163.207031 182.03125 139.574219 168.964844 112.621094 195.839844 C 112.570312 195.890625 112.628906 195.972656 112.691406 195.933594 C 117.144531 193.132812 122.113281 191.007812 127.089844 189.390625 C 133.023438 187.464844 139.273438 186.335938 145.519531 186.53125 C 153.195312 186.761719 159.574219 189.347656 166.199219 193.03125 C 177.332031 199.207031 189.574219 205.984375 202.617188 206.625 C 205.183594 206.75 207.871094 206.617188 210.324219 205.773438 C 210.839844 205.589844 211.925781 205.007812 212.363281 204.765625 C 212.414062 204.742188 212.390625 204.691406 212.34375 204.691406 Z M 212.34375 204.691406 "/></g><g clip-rule="nonzero" clip-path="url(#99851f1e30)"><path style=" stroke:none;fill-rule:nonzero;fill:#00b7ee;fill-opacity:1;" d="M 140.78125 146.007812 L 140.78125 166.695312 C 141.542969 166.453125 142.304688 166.199219 143.074219 165.996094 L 143.695312 165.820312 C 143.894531 165.761719 144.109375 165.710938 144.3125 165.660156 L 145.558594 165.375 C 147.222656 165.019531 148.917969 164.734375 150.621094 164.558594 C 150.976562 164.519531 151.320312 164.488281 151.675781 164.46875 L 151.675781 137.605469 L 189.007812 108.777344 L 226.335938 137.605469 L 226.335938 185.574219 C 229.144531 185.207031 231.957031 184.585938 234.683594 183.648438 C 235.535156 183.363281 236.378906 183.050781 237.21875 182.714844 L 237.21875 146.007812 L 244.582031 151.699219 L 262.429688 151.699219 L 227.585938 124.792969 L 227.585938 130.238281 L 225.628906 130.238281 L 225.628906 106.324219 L 212.566406 106.324219 L 212.566406 113.191406 L 189.007812 95 L 115.582031 151.699219 L 133.429688 151.699219 Z M 140.78125 146.007812 "/></g><g style="fill:#000000;fill-opacity:1;"><g transform="translate(123.270648, 246.429461)"><path style="stroke:none" d="M 16.140625 -19.96875 L 16.140625 -16.078125 L 10.84375 -16.078125 L 10.84375 0 L 5.96875 0 L 5.96875 -16.078125 L 0.6875 -16.078125 L 0.6875 -19.96875 Z M 16.140625 -19.96875 "/></g></g><g style="fill:#000000;fill-opacity:1;"><g transform="translate(147.258436, 246.429461)"><path style="stroke:none" d="M 6.625 -13.234375 C 7.195312 -14.109375 7.910156 -14.796875 8.765625 -15.296875 C 9.617188 -15.796875 10.566406 -16.046875 11.609375 -16.046875 L 11.609375 -10.890625 L 10.265625 -10.890625 C 9.054688 -10.890625 8.144531 -10.628906 7.53125 -10.109375 C 6.925781 -9.585938 6.625 -8.675781 6.625 -7.375 L 6.625 0 L 1.765625 0 L 1.765625 -15.875 L 6.625 -15.875 Z M 6.625 -13.234375 "/></g></g><g style="fill:#000000;fill-opacity:1;"><g transform="translate(166.60838, 246.429461)"><path style="stroke:none" d="M 16.328125 -7.796875 C 16.328125 -5.210938 15.648438 -3.21875 14.296875 -1.8125 C 12.941406 -0.414062 11.097656 0.28125 8.765625 0.28125 C 7.316406 0.28125 6.03125 -0.03125 4.90625 -0.65625 C 3.78125 -1.28125 2.894531 -2.191406 2.25 -3.390625 C 1.601562 -4.597656 1.28125 -6.066406 1.28125 -7.796875 C 1.28125 -10.378906 1.953125 -12.359375 3.296875 -13.734375 C 4.648438 -15.117188 6.5 -15.8125 8.84375 -15.8125 C 10.3125 -15.8125 11.601562 -15.5 12.71875 -14.875 C 13.832031 -14.25 14.710938 -13.335938 15.359375 -12.140625 C 16.003906 -10.953125 16.328125 -9.503906 16.328125 -7.796875 Z M 5.609375 -7.796875 C 5.609375 -6.253906 5.859375 -5.085938 6.359375 -4.296875 C 6.859375 -3.515625 7.679688 -3.125 8.828125 -3.125 C 9.941406 -3.125 10.75 -3.515625 11.25 -4.296875 C 11.75 -5.085938 12 -6.253906 12 -7.796875 C 12 -9.328125 11.75 -10.476562 11.25 -11.25 C 10.75 -12.019531 9.929688 -12.40625 8.796875 -12.40625 C 7.671875 -12.40625 6.859375 -12.019531 6.359375 -11.25 C 5.859375 -10.476562 5.609375 -9.328125 5.609375 -7.796875 Z M 8.796875 5.96875 C 8.148438 5.96875 7.601562 5.816406 7.15625 5.515625 C 6.71875 5.210938 6.5 4.671875 6.5 3.890625 C 6.5 3.097656 6.71875 2.554688 7.15625 2.265625 C 7.601562 1.972656 8.148438 1.828125 8.796875 1.828125 C 9.421875 1.828125 9.960938 1.972656 10.421875 2.265625 C 10.878906 2.554688 11.109375 3.097656 11.109375 3.890625 C 11.109375 4.671875 10.878906 5.210938 10.421875 5.515625 C 9.960938 5.816406 9.421875 5.96875 8.796875 5.96875 Z M 8.796875 5.96875 "/></g></g><g style="fill:#000000;fill-opacity:1;"><g transform="translate(191.392847, 246.429461)"><path style="stroke:none" d="M 16.140625 -19.96875 L 16.140625 -16.078125 L 10.84375 -16.078125 L 10.84375 0 L 5.96875 0 L 5.96875 -16.078125 L 0.6875 -16.078125 L 0.6875 -19.96875 Z M 16.140625 -19.96875 "/></g></g><g style="fill:#000000;fill-opacity:1;"><g transform="translate(215.380635, 246.429461)"><path style="stroke:none" d="M 16.328125 -7.796875 C 16.328125 -5.210938 15.648438 -3.21875 14.296875 -1.8125 C 12.941406 -0.414062 11.097656 0.28125 8.765625 0.28125 C 7.316406 0.28125 6.03125 -0.03125 4.90625 -0.65625 C 3.78125 -1.28125 2.894531 -2.191406 2.25 -3.390625 C 1.601562 -4.597656 1.28125 -6.066406 1.28125 -7.796875 C 1.28125 -10.378906 1.953125 -12.359375 3.296875 -13.734375 C 4.648438 -15.117188 6.5 -15.8125 8.84375 -15.8125 C 10.3125 -15.8125 11.601562 -15.5 12.71875 -14.875 C 13.832031 -14.25 14.710938 -13.335938 15.359375 -12.140625 C 16.003906 -10.953125 16.328125 -9.503906 16.328125 -7.796875 Z M 5.609375 -7.796875 C 5.609375 -6.253906 5.859375 -5.085938 6.359375 -4.296875 C 6.859375 -3.515625 7.679688 -3.125 8.828125 -3.125 C 9.941406 -3.125 10.75 -3.515625 11.25 -4.296875 C 11.75 -5.085938 12 -6.253906 12 -7.796875 C 12 -9.328125 11.75 -10.476562 11.25 -11.25 C 10.75 -12.019531 9.929688 -12.40625 8.796875 -12.40625 C 7.671875 -12.40625 6.859375 -12.019531 6.359375 -11.25 C 5.859375 -10.476562 5.609375 -9.328125 5.609375 -7.796875 Z M 12.65625 -20.3125 C 13.019531 -20.707031 13.351562 -21.117188 13.65625 -21.546875 C 13.957031 -21.972656 14.257812 -22.492188 14.5625 -23.109375 L 17.921875 -23.109375 L 17.921875 -22.8125 C 17.503906 -22.269531 17.007812 -21.753906 16.4375 -21.265625 C 15.875 -20.785156 15.316406 -20.347656 14.765625 -19.953125 L 12.65625 -19.953125 Z M 13.875 -17.25 L 11.640625 -17.25 C 11.160156 -17.550781 10.671875 -17.898438 10.171875 -18.296875 C 9.679688 -18.691406 9.191406 -19.109375 8.703125 -19.546875 C 8.210938 -19.109375 7.71875 -18.691406 7.21875 -18.296875 C 6.726562 -17.898438 6.242188 -17.550781 5.765625 -17.25 L 3.53125 -17.25 L 3.53125 -17.609375 C 4 -18.160156 4.503906 -18.785156 5.046875 -19.484375 C 5.585938 -20.191406 6.078125 -20.867188 6.515625 -21.515625 L 10.890625 -21.515625 C 11.328125 -20.867188 11.816406 -20.191406 12.359375 -19.484375 C 12.898438 -18.785156 13.40625 -18.160156 13.875 -17.609375 Z M 13.875 -17.25 "/></g></g><g style="fill:#000000;fill-opacity:1;"><g transform="translate(240.165103, 246.429461)"><path style="stroke:none" d="M 10.609375 -4.125 L 10.609375 0 L 8.140625 0 C 6.367188 0 4.988281 -0.429688 4 -1.296875 C 3.019531 -2.160156 2.53125 -3.566406 2.53125 -5.515625 L 2.53125 -11.84375 L 0.59375 -11.84375 L 0.59375 -15.875 L 2.53125 -15.875 L 2.53125 -19.75 L 7.390625 -19.75 L 7.390625 -15.875 L 10.578125 -15.875 L 10.578125 -11.84375 L 7.390625 -11.84375 L 7.390625 -5.46875 C 7.390625 -4.988281 7.503906 -4.644531 7.734375 -4.4375 C 7.960938 -4.226562 8.34375 -4.125 8.875 -4.125 Z M 10.609375 -4.125 "/></g></g><g style="fill:#000000;fill-opacity:1;"><g transform="translate(151.197041, 276.031924)"><path style="stroke:none" d="M 7.453125 0 L 7.453125 -5.703125 C 7.453125 -6.421875 7.285156 -6.957031 6.953125 -7.3125 C 6.628906 -7.664062 6.117188 -7.84375 5.421875 -7.84375 C 4.492188 -7.84375 3.816406 -7.585938 3.390625 -7.078125 C 2.960938 -6.578125 2.75 -5.753906 2.75 -4.609375 L 2.75 0 L 1.421875 0 L 1.421875 -12.515625 L 2.75 -12.515625 L 2.75 -8.71875 C 2.75 -8.269531 2.726562 -7.894531 2.6875 -7.59375 L 2.765625 -7.59375 C 3.023438 -8.007812 3.394531 -8.335938 3.875 -8.578125 C 4.363281 -8.828125 4.921875 -8.953125 5.546875 -8.953125 C 6.628906 -8.953125 7.4375 -8.695312 7.96875 -8.1875 C 8.507812 -7.675781 8.78125 -6.863281 8.78125 -5.75 L 8.78125 0 Z M 7.453125 0 "/></g></g><g style="fill:#000000;fill-opacity:1;"><g transform="translate(166.333908, 276.031924)"><path style="stroke:none" d="M 9.015625 -4.421875 C 9.015625 -2.984375 8.648438 -1.859375 7.921875 -1.046875 C 7.203125 -0.242188 6.207031 0.15625 4.9375 0.15625 C 4.144531 0.15625 3.441406 -0.0234375 2.828125 -0.390625 C 2.222656 -0.765625 1.753906 -1.296875 1.421875 -1.984375 C 1.085938 -2.679688 0.921875 -3.492188 0.921875 -4.421875 C 0.921875 -5.847656 1.28125 -6.960938 2 -7.765625 C 2.71875 -8.566406 3.71875 -8.96875 5 -8.96875 C 6.226562 -8.96875 7.203125 -8.554688 7.921875 -7.734375 C 8.648438 -6.921875 9.015625 -5.816406 9.015625 -4.421875 Z M 2.3125 -4.421875 C 2.3125 -3.285156 2.535156 -2.421875 2.984375 -1.828125 C 3.429688 -1.242188 4.09375 -0.953125 4.96875 -0.953125 C 5.84375 -0.953125 6.503906 -1.242188 6.953125 -1.828125 C 7.410156 -2.421875 7.640625 -3.285156 7.640625 -4.421875 C 7.640625 -5.535156 7.410156 -6.382812 6.953125 -6.96875 C 6.503906 -7.550781 5.835938 -7.84375 4.953125 -7.84375 C 4.078125 -7.84375 3.414062 -7.554688 2.96875 -6.984375 C 2.53125 -6.410156 2.3125 -5.554688 2.3125 -4.421875 Z M 2.3125 -4.421875 "/></g></g><g style="fill:#000000;fill-opacity:1;"><g transform="translate(181.309894, 276.031924)"><path style="stroke:none" d="M 12.65625 0 L 12.65625 -5.734375 C 12.65625 -6.429688 12.503906 -6.957031 12.203125 -7.3125 C 11.898438 -7.664062 11.429688 -7.84375 10.796875 -7.84375 C 9.960938 -7.84375 9.347656 -7.601562 8.953125 -7.125 C 8.554688 -6.644531 8.359375 -5.910156 8.359375 -4.921875 L 8.359375 0 L 7.03125 0 L 7.03125 -5.734375 C 7.03125 -6.429688 6.878906 -6.957031 6.578125 -7.3125 C 6.273438 -7.664062 5.804688 -7.84375 5.171875 -7.84375 C 4.335938 -7.84375 3.722656 -7.59375 3.328125 -7.09375 C 2.941406 -6.59375 2.75 -5.769531 2.75 -4.625 L 2.75 0 L 1.421875 0 L 1.421875 -8.8125 L 2.5 -8.8125 L 2.71875 -7.609375 L 2.78125 -7.609375 C 3.03125 -8.035156 3.382812 -8.367188 3.84375 -8.609375 C 4.300781 -8.847656 4.816406 -8.96875 5.390625 -8.96875 C 6.765625 -8.96875 7.664062 -8.472656 8.09375 -7.484375 L 8.15625 -7.484375 C 8.414062 -7.941406 8.796875 -8.300781 9.296875 -8.5625 C 9.796875 -8.832031 10.363281 -8.96875 11 -8.96875 C 12 -8.96875 12.742188 -8.710938 13.234375 -8.203125 C 13.734375 -7.691406 13.984375 -6.875 13.984375 -5.75 L 13.984375 0 Z M 12.65625 0 "/></g></g><g style="fill:#000000;fill-opacity:1;"><g transform="translate(201.659294, 276.031924)"><path style="stroke:none" d="M 5.140625 0.15625 C 3.835938 0.15625 2.804688 -0.238281 2.046875 -1.03125 C 1.296875 -1.820312 0.921875 -2.921875 0.921875 -4.328125 C 0.921875 -5.753906 1.269531 -6.882812 1.96875 -7.71875 C 2.675781 -8.550781 3.617188 -8.96875 4.796875 -8.96875 C 5.898438 -8.96875 6.769531 -8.601562 7.40625 -7.875 C 8.050781 -7.15625 8.375 -6.203125 8.375 -5.015625 L 8.375 -4.171875 L 2.3125 -4.171875 C 2.332031 -3.128906 2.585938 -2.335938 3.078125 -1.796875 C 3.578125 -1.265625 4.28125 -1 5.1875 -1 C 6.132812 -1 7.070312 -1.195312 8 -1.59375 L 8 -0.40625 C 7.53125 -0.207031 7.082031 -0.0664062 6.65625 0.015625 C 6.238281 0.109375 5.734375 0.15625 5.140625 0.15625 Z M 4.78125 -7.859375 C 4.070312 -7.859375 3.503906 -7.625 3.078125 -7.15625 C 2.660156 -6.695312 2.414062 -6.0625 2.34375 -5.25 L 6.953125 -5.25 C 6.953125 -6.09375 6.765625 -6.738281 6.390625 -7.1875 C 6.015625 -7.632812 5.476562 -7.859375 4.78125 -7.859375 Z M 4.78125 -7.859375 "/></g></g><g style="fill:#000000;fill-opacity:1;"><g transform="translate(215.927405, 276.031924)"><path style="stroke:none" d="M 7.09375 -2.40625 C 7.09375 -1.582031 6.785156 -0.945312 6.171875 -0.5 C 5.566406 -0.0625 4.710938 0.15625 3.609375 0.15625 C 2.441406 0.15625 1.53125 -0.0234375 0.875 -0.390625 L 0.875 -1.625 C 1.300781 -1.414062 1.753906 -1.25 2.234375 -1.125 C 2.722656 -1 3.191406 -0.9375 3.640625 -0.9375 C 4.335938 -0.9375 4.875 -1.046875 5.25 -1.265625 C 5.625 -1.492188 5.8125 -1.835938 5.8125 -2.296875 C 5.8125 -2.640625 5.660156 -2.929688 5.359375 -3.171875 C 5.066406 -3.410156 4.488281 -3.695312 3.625 -4.03125 C 2.800781 -4.34375 2.21875 -4.609375 1.875 -4.828125 C 1.53125 -5.054688 1.273438 -5.316406 1.109375 -5.609375 C 0.941406 -5.898438 0.859375 -6.25 0.859375 -6.65625 C 0.859375 -7.375 1.148438 -7.9375 1.734375 -8.34375 C 2.316406 -8.757812 3.117188 -8.96875 4.140625 -8.96875 C 5.085938 -8.96875 6.015625 -8.773438 6.921875 -8.390625 L 6.4375 -7.3125 C 5.550781 -7.675781 4.75 -7.859375 4.03125 -7.859375 C 3.40625 -7.859375 2.929688 -7.757812 2.609375 -7.5625 C 2.285156 -7.363281 2.125 -7.085938 2.125 -6.734375 C 2.125 -6.503906 2.179688 -6.304688 2.296875 -6.140625 C 2.421875 -5.972656 2.613281 -5.8125 2.875 -5.65625 C 3.144531 -5.507812 3.664062 -5.296875 4.4375 -5.015625 C 5.476562 -4.628906 6.179688 -4.242188 6.546875 -3.859375 C 6.910156 -3.472656 7.09375 -2.988281 7.09375 -2.40625 Z M 7.09375 -2.40625 "/></g></g></g></svg>